
<svg xmlns="http://www.w3.org/2000/svg" version="1.1" xmlns:xlink="http://www.w3.org/1999/xlink" preserveAspectRatio="none" x="0px" y="0px" width="650px" height="200px" viewBox="0 0 650 200">
<defs>
<g id="Layer0_0_FILL">
<path fill="#3FBEFF" stroke="none" d="
M 84.65 46.75
Q 85.65 47.65 86.75 48.5 87.55 49.05 88.45 49.75 88.9 50.1 89.3 50.4 89.35 50.45 89.4 50.5 89.75 50.85 90.2 51.3 90.25 51.35 90.35 51.45 92.95 54.05 94.35 57.3 95.7 60.5 95.65 64.25 95.65 71.75 90.3 77.1 88.25 79.15 85.95 80.45 84.45 81.25 82.8 81.7 80.35 82.45 77.55 82.5 73.7 82.5 70.55 81.05 67.3 79.7 64.65 77.05 64.6 77 64.55 76.95 61.95 74.35 60.65 71.15 59.2 68 59.25 64.2 59.2 62.5 59.35 61.15 59.55 60.45 59.65 59.85 59.9 58.4 59.9 56.8 59.9 49.3 54.55 43.95 49.25 38.65 41.75 38.65 34.2 38.7 28.9 44 23.6 49.3 23.6 56.8 23.55 64.35 28.85 69.65 34.2 75 41.75 74.95 43.3 75 44.7 74.8 45.35 74.65 45.95 74.55 47.45 74.25 49.1 74.3 56.6 74.3 61.9 79.6 63.8 81.5 65.05 83.65 65.4 84.3 65.75 85.05 66.1 85.9 66.45 86.75 67.35 89.55 67.35 92.65 67.3 95.2 66.8 97.4 66.15 99.75 64.95 101.65 63.2 106.8 63.25 112.65 63.2 118.6 65 123.8 66.1 125.6 66.6 127.6 67.25 130.05 67.25 132.65 67.3 136.5 65.95 139.65 64.6 142.8 61.9 145.5
L 61.85 145.55
Q 57.9 149.5 52.7 150.5 52.25 150.55 51.85 150.65 50.45 150.85 49.05 150.85 47.4 150.85 45.95 150.65 45.35 150.45 44.75 150.35 43.3 150.1 41.65 150.15 34.15 150.15 28.85 155.45 23.55 160.8 23.5 168.3 23.55 175.85 28.85 181.15 34.2 186.5 41.65 186.45 49.25 186.5 54.55 181.15 59.85 175.85 59.8 168.3 59.9 166.7 59.7 165.3 59.5 164.6 59.4 164.1 59.15 162.6 59.2 161 59.15 153.45 64.45 148.15 69.8 142.8 77.35 142.85 80.45 142.85 83.2 143.7 84.3 144.1 85.4 144.7 90.95 146.65 97.25 146.65 111.4 146.7 121.4 136.7 124.05 134.05 126 131.1
L 116.05 121.15
Q 114.5 124.2 111.9 126.8 105.75 132.95 97.05 132.95 88.35 132.95 82.2 126.8 76.05 120.65 76.05 111.95 76.05 103.25 82.2 97.1 88.35 90.95 97.05 90.95 105.75 90.95 111.9 97.1 115.35 100.55 116.85 104.75
L 126.55 95.1
Q 124.4 91.6 121.35 88.55 116.45 83.65 110.55 81.15
L 110.6 81.1
Q 107.35 79.75 104.65 77.05 99.3 71.7 99.3 64.2 99.35 56.75 104.7 51.4 105.85 50.25 106.95 49.45 107.55 49.05 108.05 48.75 109.25 47.85 110.35 46.75 115.65 41.45 115.7 33.9 115.65 26.35 110.35 21.05 105 15.7 97.5 15.7 89.95 15.75 84.65 21.05 79.35 26.35 79.35 33.85 79.3 41.4 84.65 46.75
M 227.5 88.75
Q 220.75 86.7 216.85 86.7
L 211.25 87.25 206.25 88.75
Q 201.6 90.65 198.2 94.3 194.85 97.75 193.1 102.45 191.35 107.1 191.35 112.4 191.35 117.7 193.1 122.4 194.85 127.1 198.15 130.55 201.55 134.15 206.2 136.05
L 211.25 137.6 216.95 138.1
Q 220.95 138.1 227.75 136.05 232.35 134.15 235.8 130.55 239.1 127.1 240.85 122.4 242.65 117.7 242.65 112.4 242.65 107.1 240.8 102.45 239 97.8 235.65 94.3 232.2 90.65 227.5 88.75
M 229.5 117.8
Q 228.6 120.5 227 122.45 225.25 124.55 222.8 125.65 220.15 126.9 216.95 126.9 213.7 126.9 211.1 125.65 208.65 124.55 206.95 122.45 205.3 120.5 204.4 117.8 203.55 115.25 203.55 112.4 203.55 109.55 204.4 107 205.3 104.35 206.95 102.35 208.7 100.2 211.15 99.05 213.75 97.8 216.95 97.8 219.9 97.8 222.5 99.05 224.9 100.2 226.7 102.35 228.45 104.4 229.4 107 230.35 109.6 230.35 112.4 230.35 115.25 229.5 117.8
M 172.25 86.3
Q 166.85 86.3 162.15 87.95 157.3 89.6 153.8 92.8 150.1 96.15 148.1 100.9 146.05 108.05 146.05 112.4
L 146.6 118.55 148.1 123.85
Q 150.1 128.65 153.8 132 157.3 135.25 162.15 136.9 166.85 138.5 172.25 138.5 177.85 138.5 182.35 136.7 185.5 135.45 191.25 130.7
L 183.05 122.7
Q 180.9 124.85 178 125.85 175.35 126.8 172.25 126.8 169.35 126.8 166.85 125.85 164.3 124.95 162.4 123.15 160.45 121.25 159.35 118.6 158.25 115.8 158.25 112.4 158.25 109.2 159.3 106.5 160.35 103.85 162.3 101.9 164.2 99.95 166.8 98.85 169.4 97.8 172.45 97.8 175.1 97.8 177.55 98.75 180.2 99.8 182.35 101.7
L 190.05 93.6
Q 186.05 89.7 181.75 88 177.6 86.3 172.25 86.3
M 281.9 88.75
Q 275.15 86.7 271.25 86.7
L 265.65 87.25 260.65 88.75
Q 256 90.65 252.6 94.3 249.25 97.75 247.5 102.45 245.75 107.1 245.75 112.4 245.75 117.7 247.5 122.4 249.25 127.1 252.55 130.55 255.95 134.15 260.6 136.05
L 265.65 137.6 271.35 138.1
Q 275.35 138.1 282.15 136.05 286.75 134.15 290.2 130.55 293.5 127.1 295.25 122.4 297.05 117.7 297.05 112.4 297.05 107.1 295.2 102.45 293.4 97.8 290.05 94.3 286.6 90.65 281.9 88.75
M 283.8 107
Q 284.75 109.6 284.75 112.4 284.75 115.25 283.9 117.8 283 120.5 281.4 122.45 279.65 124.55 277.2 125.65 274.55 126.9 271.35 126.9 268.1 126.9 265.5 125.65 263.05 124.55 261.35 122.45 259.7 120.5 258.8 117.8 257.95 115.25 257.95 112.4 257.95 109.55 258.8 107 259.7 104.35 261.35 102.35 263.1 100.2 265.55 99.05 268.15 97.8 271.35 97.8 274.3 97.8 276.9 99.05 279.3 100.2 281.1 102.35 282.85 104.4 283.8 107
M 400.35 88.1
Q 395.8 86.5 390.35 86.5 386.05 86.5 381.4 88.55 379 89.6 377.2 91 375.2 92.55 374.15 94.4
L 374.15 67.1 361.95 67.1 361.95 137 373.35 137 374.15 130.2
Q 375.55 132.35 377.4 133.9 379.15 135.4 381.3 136.35 385.15 138.1 390.05 138.1 395.5 138.1 400.15 136.35 404.8 134.6 408.2 131.3 411.65 127.85 413.5 123.2 414.8 120 415.45 112.3 415.45 108.05 413.55 101.1 411.75 96.4 408.3 93 404.95 89.8 400.35 88.1
M 383.8 98.95
Q 386.35 97.9 389.25 97.9 392.2 97.9 394.7 98.9 397.25 99.9 399.15 101.75 401.1 103.7 402.15 106.3 403.25 109 403.25 112.3 403.25 115.45 402.15 118.2 401.1 120.85 399.15 122.8 397.25 124.7 394.7 125.7 392.15 126.8 389.25 126.8 386.35 126.8 383.8 125.75 381.2 124.8 379.2 122.9 377.2 120.95 376.1 118.3 374.95 115.55 374.95 112.3 374.95 109.15 376.1 106.45 377.2 103.85 379.2 101.9 381.2 100 383.8 98.95
M 341.05 88.6
Q 336.25 86.6 330.65 86.6 326.15 86.6 322 88.45 319.8 89.5 318 90.95 316.05 92.5 314.65 94.5
L 313.85 87.7 302.45 87.7 302.45 157.6 314.65 157.6 314.65 131.2
Q 315.9 133.15 318 134.55 319.8 135.9 322.25 136.7 326.35 138.2 331.05 138.2 335 138.2 341.6 136.15 346.15 134.25 349.45 130.7 352.6 127.25 354.25 122.5 355.95 117.8 355.95 112.4 355.95 107 354.1 102.25 352.35 97.55 349 94.1 345.6 90.5 341.05 88.6
M 342.8 106.95
Q 343.75 109.5 343.75 112.4 343.75 115.25 342.75 117.85 341.7 120.35 339.85 122.3 337.95 124.25 335.45 125.3 332.8 126.4 329.75 126.4 326.7 126.4 324.1 125.3 321.55 124.25 319.65 122.3 317.8 120.35 316.75 117.85 315.75 115.25 315.75 112.4 315.75 109.5 316.7 106.95 317.65 104.45 319.45 102.55 321.3 100.55 323.85 99.5 326.55 98.4 329.75 98.4 332.95 98.4 335.65 99.5 338.2 100.55 340.05 102.55 341.85 104.45 342.8 106.95
M 444.65 86.7
L 439.05 87.25 434.05 88.75
Q 429.4 90.65 426 94.3 422.65 97.75 420.9 102.45 419.15 107.1 419.15 112.4 419.15 117.7 420.9 122.4 422.65 127.1 425.95 130.55 429.35 134.15 434 136.05
L 439.05 137.6 444.75 138.1
Q 448.75 138.1 455.55 136.05 460.15 134.15 463.6 130.55 466.9 127.1 468.65 122.4 470.45 117.7 470.45 112.4 470.45 107.1 468.6 102.45 466.8 97.8 463.45 94.3 460 90.65 455.3 88.75 448.55 86.7 444.65 86.7
M 457.3 117.8
Q 456.4 120.5 454.8 122.45 453.05 124.55 450.6 125.65 447.95 126.9 444.75 126.9 441.5 126.9 438.9 125.65 436.45 124.55 434.75 122.45 433.1 120.5 432.2 117.8 431.35 115.25 431.35 112.4 431.35 109.55 432.2 107 433.1 104.35 434.75 102.35 436.5 100.2 438.95 99.05 441.55 97.8 444.75 97.8 447.7 97.8 450.3 99.05 452.7 100.2 454.5 102.35 456.25 104.4 457.2 107 458.15 109.6 458.15 112.4 458.15 115.25 457.3 117.8
M 514.95 87.7
L 514.55 94.5
Q 512.5 90.85 508.15 88.65 503.85 86.5 498.85 86.5 493.4 86.45 488.75 88.1 484.05 89.8 480.6 93 477.05 96.35 475.1 101.05 473.15 108.05 473.15 112.3 473.8 120.45 475.05 123.7 476.9 128.55 480.4 131.9 483.75 135.2 488.4 136.9 493.05 138.5 498.55 138.5 503.2 138.4 507.55 136.25 509.9 135.15 511.65 133.6 513.55 131.85 514.55 129.8
L 515.15 137 526.65 137 526.65 87.7 514.95 87.7
M 494.25 98.45
Q 496.9 97.4 499.95 97.4 503.45 97.4 506.25 98.65 508.85 99.9 510.75 102.1 512.5 104.15 513.45 106.85 514.35 109.5 514.35 112.35 514.35 115.2 513.45 117.85 512.5 120.55 510.75 122.65 508.85 124.85 506.25 126 503.45 127.3 499.95 127.3 496.9 127.3 494.25 126.25 491.6 125.25 489.6 123.35 487.55 121.35 486.5 118.6 485.35 115.75 485.35 112.3 485.35 108.9 486.5 106 487.55 103.3 489.6 101.3 491.6 99.4 494.25 98.45
M 572.75 91.1
Q 570.65 89 567.3 87.75 563.8 86.4 560.05 86.4 555.6 86.4 552.65 87.65 550.75 88.4 549.25 89.75 547.55 91.2 546.15 93.4
L 545.25 87.7 533.95 87.7 533.95 137 546.15 137 546.15 111
Q 546.15 107.7 547.2 105.2 548.1 102.9 549.9 101.35 551.55 99.9 553.85 99.15 555.95 98.5 558.45 98.5 561.3 98.5 563.4 99.3 565.25 100.05 567.25 101.7
L 572.75 91.1
M 606.1 88.55
Q 601.5 86.5 597.15 86.5 591.7 86.5 587.15 88.1 582.5 89.8 579.2 93 575.75 96.4 573.95 101.1 572.05 108.05 572.05 112.3 572.75 120 573.95 123.2 575.8 127.85 579.35 131.3 582.7 134.6 587.35 136.35 592.05 138.1 597.45 138.1 602.4 138.1 606.25 136.35 608.4 135.4 610.1 133.9 611.95 132.35 613.35 130.2
L 614.15 137 625.55 137 625.55 67.1 613.35 67.1 613.35 94.4
Q 612.3 92.55 610.35 91 608.55 89.6 606.1 88.55
M 598.25 97.9
Q 601.1 97.9 603.75 98.95 606.35 100 608.3 101.9 610.3 103.85 611.4 106.45 612.55 109.15 612.55 112.3 612.55 115.55 611.4 118.3 610.3 120.95 608.3 122.9 606.35 124.8 603.75 125.75 601.1 126.8 598.25 126.8 595.35 126.8 592.75 125.7 590.2 124.7 588.3 122.8 586.35 120.85 585.35 118.2 584.25 115.45 584.25 112.3 584.25 109 585.35 106.3 586.35 103.7 588.3 101.75 590.2 99.9 592.75 98.9 595.35 97.9 598.25 97.9 Z"/>
</g>
</defs>

<g transform="matrix( 1, 0, 0, 1, 0,0) ">
<use xlink:href="#Layer0_0_FILL"/>
</g>
</svg>
