
<svg xmlns="http://www.w3.org/2000/svg" version="1.1" xmlns:xlink="http://www.w3.org/1999/xlink" preserveAspectRatio="none" x="0px" y="0px" width="200px" height="200px" viewBox="0 0 200 200">
<defs>
<g id="Layer0_0_FILL">
<path fill="#3FBEFF" stroke="none" d="
M 138.7 33.9
Q 138.65 26.35 133.35 21.05 128 15.7 120.5 15.7 112.95 15.75 107.65 21.05 102.35 26.35 102.35 33.85 102.3 41.4 107.65 46.75 108.65 47.65 109.75 48.5 110.55 49.05 111.45 49.75 111.9 50.1 112.3 50.4 112.35 50.45 112.4 50.5 112.75 50.85 113.2 51.3 113.25 51.35 113.35 51.45 115.95 54.05 117.35 57.3 118.7 60.5 118.65 64.25 118.65 71.75 113.3 77.1 111.25 79.15 108.95 80.45 107.45 81.25 105.8 81.7 103.35 82.45 100.55 82.5 96.7 82.5 93.55 81.05 90.3 79.7 87.65 77.05 87.6 77 87.55 76.95 84.95 74.35 83.65 71.15 82.2 68 82.25 64.2 82.2 62.5 82.35 61.15 82.55 60.45 82.65 59.85 82.9 58.4 82.9 56.8 82.9 49.3 77.55 43.95 72.25 38.65 64.75 38.65 57.2 38.7 51.9 44 46.6 49.3 46.6 56.8 46.55 64.35 51.85 69.65 57.2 75 64.75 74.95 66.3 75 67.7 74.8 68.35 74.65 68.95 74.55 70.45 74.25 72.1 74.3 79.6 74.3 84.9 79.6 86.8 81.5 88.05 83.65 88.4 84.3 88.75 85.05 89.1 85.9 89.45 86.75 90.35 89.55 90.35 92.65 90.3 95.2 89.8 97.4 89.15 99.75 87.95 101.65 86.2 106.8 86.25 112.65 86.2 118.6 88 123.8 89.1 125.6 89.6 127.6 90.25 130.05 90.25 132.65 90.3 136.5 88.95 139.65 87.6 142.8 84.9 145.5
L 84.85 145.55
Q 80.9 149.5 75.7 150.5 75.25 150.55 74.85 150.65 73.45 150.85 72.05 150.85 70.4 150.85 68.95 150.65 68.35 150.45 67.75 150.35 66.3 150.1 64.65 150.15 57.15 150.15 51.85 155.45 46.55 160.8 46.5 168.3 46.55 175.85 51.85 181.15 57.2 186.5 64.65 186.45 72.25 186.5 77.55 181.15 82.85 175.85 82.8 168.3 82.9 166.7 82.7 165.3 82.5 164.6 82.4 164.1 82.15 162.6 82.2 161 82.15 153.45 87.45 148.15 92.8 142.8 100.35 142.85 103.45 142.85 106.2 143.7 107.3 144.1 108.4 144.7 113.95 146.65 120.25 146.65 134.4 146.7 144.4 136.7 147.05 134.05 149 131.1
L 139.05 121.15
Q 137.5 124.2 134.9 126.8 128.75 132.95 120.05 132.95 111.35 132.95 105.2 126.8 99.05 120.65 99.05 111.95 99.05 103.25 105.2 97.1 111.35 90.95 120.05 90.95 128.75 90.95 134.9 97.1 138.35 100.55 139.85 104.75
L 149.55 95.1
Q 147.4 91.6 144.35 88.55 139.45 83.65 133.55 81.15
L 133.6 81.1
Q 130.35 79.75 127.65 77.05 122.3 71.7 122.3 64.2 122.35 56.75 127.7 51.4 128.85 50.25 129.95 49.45 130.55 49.05 131.05 48.75 132.25 47.85 133.35 46.75 138.65 41.45 138.7 33.9 Z"/>
</g>
</defs>

<g transform="matrix( 1, 0, 0, 1, 0,0) ">
<use xlink:href="#Layer0_0_FILL"/>
</g>
</svg>
